<?xml version="1.0" encoding="UTF-8"?>
<svg id="Layer_2" data-name="Layer 2" xmlns="http://www.w3.org/2000/svg" viewBox="0 0 802.962961555 177.931055177">
  <g id="Layer_1-2" data-name="Layer 1">
    <g>
      <g>
        <path d="m390.69949634,0c6.839783352,0,13.156735096,1.317822133,18.954436272,3.942723283,5.801282214,2.62490115,10.803992865,6.266817207,15.018875066,10.92574817,4.211301163,4.658930964,7.530923764,10.184473221,9.958867801,16.576626772,2.427944038,6.392153551,3.641916057,13.307138709,3.641916057,20.741374436,0,7.534504802-1.18890475,14.47097619-3.56671425,20.812995204-2.3778095,6.345600052-5.701013139,11.821007771-9.96244884,16.429804197-4.261435701,4.608796426-9.317861927,8.229226252-15.162116602,10.854127402-5.851416752,2.62490115-12.243570303,3.939142244-19.180041692,3.939142244-5.751147677,0-11.498714315-1.16741852-17.246280953-3.495093482-5.751147677-2.327674963-10.757439365-5.575676795-15.015294028-9.73684342-4.759200039-4.461973851-8.451250633-10.184473221-11.076151783-17.171079147-2.628482189-6.990186964-3.939142244-14.496043459-3.939142244-22.524731561,0-7.233697576,1.210390981-13.976792891,3.641916057-20.222123867,2.427944038-6.241749938,5.772633907-11.670604158,10.034069608-16.279400584,4.261435701-4.608796426,9.292794658-8.225645214,15.090495834-10.850546364,5.797701176-2.62490115,12.064518383-3.942723283,18.807613697-3.942723283Zm0,3.570295289c-4.361704776,0-8.275779752,1.113702944-11.745805965,3.344689869-3.470026213,2.230986926-6.41722082,5.403786952-8.845164858,9.514819039-2.431525076,4.114613126-4.311570238,9.120904815-5.650878601,15.015294028-1.335727325,5.897970251-2.005381506,12.515729222-2.005381506,19.849695873,0,15.559611865,2.474497537,27.677845824,7.434235727,36.351120838,4.952576113,8.673275014,11.89262854,13.006331483,20.812995204,13.006331483,4.755619,0,8.995568471-1.285592787,12.712686334-3.863940438,3.717117863-2.574766612,6.861269582-6.342019013,9.439617233-11.298176164.891678563-1.786938164,1.708155319-3.942723283,2.453011307-6.467355358.744855988-2.528213113,1.385861862-5.253383339,1.933760738-8.179091715.544317837-2.922127338.966880369-5.994658288,1.264106557-9.217592852.297226188-3.219353525.444048762-6.367086282.444048762-9.439617233,0-7.530923763-.644586913-14.295505309-1.933760738-20.293744635-1.289173825-5.998239327-3.147732757-11.101219052-5.572095757-15.312520215-2.431525076-4.214882201-5.403786952-7.434235727-8.920366664-9.665222652-3.520160751-2.230986926-7.459302995-3.344689869-11.821007771-3.344689869Z"/>
        <path d="m469.199439193,91.434653568c0,2.578347651.243510611,4.411839314.74127495,5.500474988.4941833,1.092216713,1.586400013,2.034029813,3.269488063,2.825439301v1.933760738h-25.124565442v-1.933760738c1.68308805-.891678563,2.775304763-1.858558932,3.269488063-2.897060069.497764338-1.042082176.744855988-2.85050657.744855988-5.42885422v-42.220442783c0-2.281121463-.272158919-3.867521476-.816476756-4.759200039-.547898876-.891678563-1.611467282-1.536265475-3.197867295-1.933760738v-2.825439301c2.277540425-.691140412,4.164747664-1.285592787,5.650878601-1.783357125,1.486130938-.4941833,2.846925531-1.013433868,4.085964819-1.561332744,1.239039288-.544317837,2.478078576-1.210390981,3.717117863-2.005381506,1.239039288-.791409487,2.85050657-1.783357125,4.834401845-2.975842914h2.825439301v12.193435765c2.8719928-4.164747664,5.672364832-7.158495769,8.397535057-8.995568471,2.725170225-1.833491663,5.525542257-2.750237494,8.401116096-2.750237494,2.277540425,0,4.186233894.719788719,5.722499369,2.155785119,1.536265475,1.439577438,2.306188732,3.248001832,2.306188732,5.425273182,0,1.983895276-.644586913,3.645497095-1.933760738,4.98122442-1.289173825,1.339308363-2.972261875,2.008962545-5.052845188,2.008962545-.598033413,0-1.067149444-.025067269-1.41451017-.075201806s-.74127495-.150403613-1.18890475-.297226188c-.4476298-.150403613-.991947638-.393914224-1.636534551-.744855988-.644586913-.343779687-1.511198206-.816476756-2.599833881-1.410929131-.794990526-.4941833-1.686669088-.744855988-2.678616726-.744855988-2.875573838,0-5.647297563,1.539846514-8.322333251,4.608796426v43.710154759Z"/>
        <path d="m557.210620046,97.53316197c-2.478078576,2.180852388-4.583729157,3.666983326-6.316951745,4.458392813-1.736803626.791409487-3.842454207,1.18890475-6.316951745,1.18890475-6.940052427,0-10.854127402-3.269488063-11.745805965-9.812045227-1.18890475.891678563-2.155785119,1.611467282-2.900641107,2.155785119-.74127495.544317837-1.364375632.991947638-1.858558932,1.339308363-.497764338.347360725-.916745831.644586913-1.264106557.891678563s-.766342218.519250569-1.264106557.816476756c-4.658930964,3.072530951-9.564953577,4.608796426-14.71806784,4.608796426s-9.342929196-1.410929131-12.562282721-4.236368432c-3.222934564-2.825439301-4.830820807-6.467355358-4.830820807-10.929329209,0-6.936471388,4.608796426-12.880995139,13.826389278-17.840733328,2.972261875-1.68308805,6.442288089-3.391243369,10.406497602-5.128046994,3.964209513-1.733222588,9.017054701-3.838873169,15.165697641-6.316951745v-15.018875066c0-2.574766612-.69472145-4.583729157-2.084164351-6.019725557-1.385861862-1.4359964-3.3196226-2.155785119-5.797701176-2.155785119-1.18890475,0-2.352742231.200538151-3.491512444.594452375-1.142351251.397495263-2.059097082.991947638-2.750237494,1.783357125-.200538151.200538151-.350941764.397495263-.4476298.594452375-.100269075.200538151-.24709165.472697069-.4476298.820057795-.196957112.347360725-.422562532.866611294-.666073143,1.561332744-.250672688.69472145-.623100682,1.632953512-1.117283982,2.821858262-2.180852388,5.650878601-5.303517876,8.476317902-9.364415426,8.476317902-1.983895276,0-3.670564364-.619519644-5.056426226-1.858558932-1.389442901-1.239039288-2.080583313-2.700102957-2.080583313-4.386772045,0-1.980314237.691140412-3.838873169,2.080583313-5.575676795,1.385861862-1.733222588,3.294555332-3.219353525,5.726080408-4.458392813,2.424362999-1.239039288,5.299936838-2.230986926,8.623140477-2.975842914,3.3196226-.74127495,6.91140412-1.113702944,10.775344557-1.113702944,7.434235727,0,13.135248866,1.364375632,17.099458379,4.089545857,3.964209513,2.725170225,5.948104789,6.667893508,5.948104789,11.817426733v45.196285696c0,2.879154877.837962987,4.311570238,2.524632075,4.311570238.991947638,0,1.8836262-.594452375,2.678616726-1.783357125l2.227405887,2.084164351Zm-24.379709454-34.64296552c-4.859469114,1.983895276-8.623140477,3.695631633-11.301757203,5.128046994-2.675035688,1.439577438-4.855888076,2.900641107-6.538976126,4.386772045-1.686669088,1.389442901-2.950775645,3.147732757-3.79231967,5.278450607-.845125063,2.134298889-1.264106557,4.336637507-1.264106557,6.61775897,0,3.369757138.791409487,6.069860095,2.3778095,8.10030887,1.586400013,2.034029813,3.666983326,3.047463682,6.245330976,3.047463682,1.8836262,0,3.863940438-.444048762,5.948104789-1.335727325,2.080583313-.891678563,4.855888076-2.478078576,8.325914289-4.759200039v-26.463873805Z"/>
        <path d="m586.646755727,38.20967977v52.036069048c0,4.361704776,1.486130938,6.542557164,4.461973851,6.542557164,1.18890475,0,2.277540425-.297226188,3.269488063-.891678563.988366599-.594452375,2.030448775-1.586400013,3.122665488-2.975842914l2.230986926,1.933760738c-2.578347651,3.072530951-5.081493495,5.22831607-7.509437533,6.467355357-2.431525076,1.239039288-5.22831607,1.858558932-8.401116096,1.858558932-2.180852388,0-4.311570238-.372427994-6.392153551-1.113702944-2.080583313-.744855988-3.767252401-1.808424394-5.056426226-3.197867295-1.8836262-1.880045162-2.821858262-4.755619-2.821858262-8.623140477v-52.036069048h-8.028688102v-4.161166625c4.855888076-1.983895276,9.192525583-5.178181532,13.006331483-9.590020846,3.817386939-4.408258275,6.86485062-9.73684342,9.145972084-15.982174397h2.972261875v25.572195243h11.000949977v4.161166625h-11.000949977Z"/>
        <path d="m634.815303298,31.817526219c3.570295289,0,7.061807733.572966145,10.481699408,1.708155319,3.419891676,1.142351251,6.564043394,2.80395307,9.439617233,4.98122442,4.261435701,3.172800026,7.484370264,7.237278614,9.665222652,12.193435765,2.180852388,4.956157151,3.269488063,10.653589252,3.269488063,17.09587734,0,6.445869127-1.088635675,12.118233959-3.269488063,17.024256572-2.180852388,4.906022613-5.403786952,8.895299395-9.665222652,11.967830346-2.775304763,1.983895276-5.92303752,3.54522802-9.439617233,4.683998232-3.520160751,1.138770212-7.011673195,1.708155319-10.481699408,1.708155319s-6.936471388-.569385106-10.406497602-1.708155319c-3.470026213-1.138770212-6.642826239-2.700102957-9.514819039-4.683998232-8.623140477-6.245330976-12.934710715-16.107510741-12.934710715-29.586539293,0-6.145061901,1.113702944-11.720738696,3.344689869-16.727030385,2.230986926-5.00271065,5.425273182-8.991987432,9.590020846-11.967830346,2.8719928-2.17727135,6.044792826-3.838873169,9.514819039-4.98122442,3.470026213-1.135189174,6.936471388-1.708155319,10.406497602-1.708155319Zm0,3.717117863c-5.052845188,0-8.920366664,2.750237494-11.595402352,8.250712483-2.675035688,5.500474988-4.014344051,13.407407784-4.014344051,23.713636311,0,21.310759542,5.203248801,31.964348794,15.609746403,31.964348794s15.609746403-10.45663214,15.609746403-31.369896419c0-10.703723789-1.314241094-18.807613697-3.939142244-24.308088686-2.62490115-5.500474988-6.517489895-8.250712483-11.670604158-8.250712483Z"/>
        <path d="m697.558677174,91.434653568c0,2.578347651.243510611,4.411839314.74127495,5.500474988.4941833,1.092216713,1.586400013,2.034029813,3.269488063,2.825439301v1.933760738h-25.124565442v-1.933760738c1.68308805-.891678563,2.775304763-1.858558932,3.269488063-2.897060069.497764338-1.042082176.744855988-2.85050657.744855988-5.42885422v-42.220442783c0-2.281121463-.272158919-3.867521476-.816476756-4.759200039-.547898876-.891678563-1.611467282-1.536265475-3.197867295-1.933760738v-2.825439301c2.277540425-.691140412,4.164747664-1.285592787,5.650878601-1.783357125,1.486130938-.4941833,2.846925531-1.013433868,4.085964819-1.561332744,1.239039288-.544317837,2.478078576-1.210390981,3.717117863-2.005381506,1.239039288-.791409487,2.85050657-1.783357125,4.834401845-2.975842914h2.825439301v12.193435765c2.8719928-4.164747664,5.672364832-7.158495769,8.397535057-8.995568471,2.725170225-1.833491663,5.525542257-2.750237494,8.401116096-2.750237494,2.277540425,0,4.186233894.719788719,5.722499369,2.155785119,1.536265475,1.439577438,2.306188732,3.248001832,2.306188732,5.425273182,0,1.983895276-.644586913,3.645497095-1.933760738,4.98122442-1.289173825,1.339308363-2.972261875,2.008962545-5.052845188,2.008962545-.598033413,0-1.067149444-.025067269-1.41451017-.075201806s-.74127495-.150403613-1.18890475-.297226188c-.447629801-.150403613-.991947638-.393914224-1.636534551-.744855988-.644586913-.343779687-1.511198206-.816476756-2.599833881-1.410929131-.794990526-.4941833-1.686669088-.744855988-2.678616726-.744855988-2.875573838,0-5.647297563,1.539846514-8.322333251,4.608796426v43.710154759Z"/>
        <path d="m748.108615284,91.434653568c0,2.578347651.243510611,4.411839314.74127495,5.500474988.4941833,1.092216713,1.586400013,2.034029813,3.269488063,2.825439301v1.933760738h-25.124565442v-1.933760738c1.68308805-.891678563,2.775304763-1.858558932,3.269488063-2.897060069.497764338-1.042082176.744855988-2.85050657.744855988-5.42885422v-42.220442783c0-2.281121463-.272158919-3.867521476-.816476756-4.759200039-.547898876-.891678563-1.611467282-1.536265475-3.197867295-1.933760738v-2.825439301c2.277540425-.691140412,4.164747664-1.285592787,5.650878601-1.783357125,1.486130938-.4941833,2.846925531-1.013433868,4.085964819-1.561332744,1.239039288-.544317837,2.478078576-1.210390981,3.717117863-2.005381506,1.239039288-.791409487,2.85050657-1.783357125,4.834401845-2.975842914h2.825439301v12.193435765c2.8719928-4.164747664,5.672364832-7.158495769,8.397535057-8.995568471,2.725170225-1.833491663,5.525542257-2.750237494,8.401116096-2.750237494,2.277540425,0,4.186233894.719788719,5.72249937,2.155785119,1.536265475,1.439577438,2.306188732,3.248001832,2.306188732,5.425273182,0,1.983895276-.644586913,3.645497095-1.933760738,4.98122442-1.289173825,1.339308363-2.972261875,2.008962545-5.052845188,2.008962545-.598033413,0-1.067149444-.025067269-1.41451017-.075201806s-.74127495-.150403613-1.18890475-.297226188c-.4476298-.150403613-.991947638-.393914224-1.636534551-.744855988-.644586913-.343779687-1.511198206-.816476756-2.599833881-1.410929131-.794990526-.4941833-1.686669088-.744855988-2.678616726-.744855988-2.875573838,0-5.647297563,1.539846514-8.322333251,4.608796426v43.710154759Z"/>
        <path d="m777.691573539,39.695810708c2.3778095-.691140412,4.311570238-1.285592787,5.797701176-1.783357125,1.486130938-.4941833,2.846925531-1.013433868,4.085964819-1.561332744,1.239039288-.544317837,2.478078576-1.210390981,3.717117863-2.005381506,1.239039288-.791409487,2.85050657-1.783357125,4.834401845-2.975842914h2.825439301v60.064757149c0,2.578347651.243510611,4.411839314.74127495,5.500474988.4941833,1.092216713,1.586400013,2.034029813,3.269488063,2.825439301v1.933760738h-25.124565442v-1.933760738c1.68308805-.791409487,2.775304763-1.733222588,3.273069101-2.825439301.4941833-1.088635675.74127495-2.922127338.74127495-5.500474988v-42.220442783c0-2.281121463-.272158919-3.889007707-.816476756-4.834401845-.547898876-.9418131-1.661601819-1.561332744-3.344689869-1.858558932v-2.825439301Zm11.444998739-38.356502345c3.072530951,0,5.525542257.719788719,7.362614958,2.155785119,1.829910624,1.439577438,2.750237494,3.344689869,2.750237494,5.72249937,0,2.381390539-.92032687,4.290084008-2.750237494,5.726080408-1.837072701,1.4359964-4.340218546,2.155785119-7.509437533,2.155785119-3.072530951,0-5.525542257-.744855988-7.35903392-2.230986926-1.837072701-1.486130938-2.750237494-3.466445175-2.750237494-5.948104789,0-2.277540425.938232062-4.111032088,2.825439301-5.500474988,1.880045162-1.385861862,4.358123738-2.080583313,7.430654688-2.080583313Z"/>
        <path d="m371.734316953,177.931055177c-2.538956228,0-4.863050153-.476278108-6.975862811-1.425253285-2.112812658-.952556215-3.960628475-2.26679731-5.539866411-3.94988536-1.579237936-1.679507011-2.80395307-3.606105673-3.670564364-5.772633907-.866611294-2.166528234-1.299916941-4.469135928-1.299916941-6.900661004,0-3.27665014.734112873-6.263236169,2.202338618-8.959758087,1.468225746-2.700102957,3.512998674-4.845144961,6.137899824-6.43870705,2.62490115-1.59356209,5.650878601-2.388552615,9.077932354-2.388552615,3.248001832,0,6.116413594.744855988,8.608816323,2.234567964,2.492402729,1.489711976,4.336637507,3.502255559,5.539866411,6.041211787l-4.404677237,1.400186016c-.981204523-1.779776087-2.349161193-3.169218988-4.103870011-4.171909741-1.758289856-.999109715-3.706374748-1.500455091-5.840673637-1.500455091-2.313350809,0-4.426163467.594452375-6.338437975,1.790519202-1.915855546,1.192485789-3.437796868,2.825439301-4.572986042,4.902441575-1.135189174,2.077002274-1.700993242,4.436906583-1.700993242,7.09045604,0,2.606995958.576547183,4.966900266,1.733222588,7.086875001,1.156675404,2.123555774,2.69294088,3.810224862,4.605215387,5.07075038,1.912274508,1.260525518,4.025087166,1.887207239,6.342019013,1.887207239,1.511198206,0,2.968680837-.264996842,4.368866853-.798571564,1.403767054-.537155761,2.62490115-1.25694448,3.670564364-2.170109273,1.045663214-.913164793,1.747546741-1.901531393,2.102069543-2.968680837l4.472716967,1.332146286c-.623100682,1.647277666-1.658020781,3.126246527-3.104760296,4.440487621-1.446739515,1.310660056-3.136989642,2.334837039-5.07075038,3.068949912-1.933760738.734112873-4.014344051,1.09937879-6.2381689,1.09937879Z"/>
        <path d="m407.838346141,177.931055177c-2.538956228,0-4.863050153-.476278108-6.975862811-1.425253285-2.112812658-.952556215-3.935561206-2.256054195-5.471826681-3.914074975-1.536265475-1.661601819-2.725170225-3.563133212-3.570295289-5.708175216-.845125063-2.148623042-1.267687595-4.415420352-1.267687595-6.803972968,0-2.478078576.422562532-4.787848346,1.267687595-6.936471388.845125063-2.145042004,2.044772929-4.046573397,3.602524634-5.704594178,1.557751706-1.661601819,3.394824407-2.965099798,5.507637065-3.917656014,2.112812658-.948975177,4.415420352-1.425253285,6.907823081-1.425253285,2.488821691,0,4.780686269.476278108,6.872012697,1.425253285,2.091326428.952556215,3.914074976,2.256054194,5.471826681,3.917656014,1.557751706,1.658020781,2.757399571,3.559552174,3.606105673,5.704594178.845125063,2.148623042,1.267687595,4.458392813,1.267687595,6.936471388,0,2.388552615-.422562532,4.655349925-1.267687595,6.803972968-.848706102,2.145042004-2.037610852,4.046573396-3.570295289,5.708175216-1.536265475,1.658020781-3.362595061,2.96151876-5.47540772,3.914074975-2.112812658.948975177-4.415420352,1.425253285-6.904242043,1.425253285Zm-12.680456988-17.783436714c0,2.560442459.565804068,4.89169846,1.700993242,6.990186965,1.135189174,2.098488505,2.657130496,3.752928247,4.572986042,4.966900266,1.912274508,1.217553057,4.025087166,1.822748548,6.338437975,1.822748548s4.426163467-.615938605,6.338437975-1.854977893c1.912274508-1.235458249,3.448539983-2.925708376,4.605215387-5.067169342,1.156675404-2.141460966,1.736803626-4.494203197,1.736803626-7.058226694,0-2.517469998-.580128221-4.834401845-1.736803626-6.957957619-1.156675404-2.119974735-2.69294088-3.799481747-4.605215387-5.034939996-1.912274508-1.235458249-4.025087166-1.854977893-6.338437975-1.854977893s-4.426163467.641005874-6.338437975,1.923017623c-1.915855546,1.27843071-3.437796868,2.968680837-4.572986042,5.067169342-1.135189174,2.098488505-1.700993242,4.451230736-1.700993242,7.058226694Z"/>
        <path d="m484.386623064,177.264982034h-4.537175658v-19.29463492c0-4.025087166-.648167951-6.986605926-1.937341777-8.88455628-1.289173825-1.901531392-3.201448333-2.854087608-5.740404562-2.854087608-2.62490115,0-4.970481305.931069985-7.040321502,2.786047878-2.066259159,1.858558932-3.527322828,4.243530509-4.368866853,7.162076808v21.085154122h-4.540756696v-19.29463492c0-4.068059627-.623100682-7.040321502-1.869302047-8.920366664-1.242620326-1.876464124-3.158475872-2.818277224-5.736823523-2.818277224-2.581928689,0-4.916765729.906002716-7.008092157,2.71442711-2.091326428,1.812005432-3.559552174,4.193395971-4.404677237,7.151333693v21.167518006h-4.537175658v-34.635803443h4.136099356v7.892608642c1.468225746-2.696521918,3.348270908-4.777105231,5.640135486-6.2381689,2.291864579-1.45748263,4.837982884-2.188014465,7.641935954-2.188014465,2.889897992,0,5.22831607.816476756,7.008092156,2.453011307,1.776195048,1.640115589,2.868411762,3.785157593,3.269488063,6.43870705,1.600724167-2.922127338,3.523741789-5.131628033,5.772633907-6.635664163,2.245311079-1.50403613,4.791429384-2.256054194,7.641935954-2.256054194,1.955246969,0,3.61326775.354522802,4.970481305,1.059987368,1.357213555.709045604,2.44584923,1.715317395,3.269488063,3.018815374.823638833,1.307079017,1.425253285,2.879154877,1.801262317,4.71264654.379590071,1.837072701.569385106,3.88184563.569385106,6.137899824v20.240029059Z"/>
        <path d="m493.66151253,162.973057763v-20.343879173h4.537175658v19.538145532c0,3.942723283.676816258,6.886336851,2.034029813,8.838002781,1.357213555,1.948084892,3.369757138,2.922127338,6.041211787,2.922127338,1.779776087,0,3.502255559-.386752148,5.171019455-1.160256443,1.668763896-.773504295,3.147732757-1.880045162,4.436906582-3.3196226,1.292754864-1.439577438,2.270378348-3.108341335,2.936451491-5.013453766v-21.804942842h4.540756696v29.171138839c0,.619519644.132498421,1.074311521.397495263,1.360794593.26857788.290064111.669654182.454791877,1.203228904.501345377v3.602524634c-.533574722.042972461-.956137254.078782845-1.267687595.100269075s-.601614452.032229346-.866611294.032229346c-.891678563-.08952596-1.658020781-.440467724-2.302607694-1.063568406-.648167951-.619519644-.991947638-1.371537709-1.034920099-2.259635233l-.136079459-4.651768887c-1.511198206,2.657130496-3.570295289,4.741294847-6.17012917,6.248912015-2.60341492,1.507617168-5.418111105,2.259635233-8.444088557,2.259635233-3.649078134,0-6.406477705-1.260525518-8.275779751-3.788738631-1.869302047-2.524632075-2.800372032-6.248912015-2.800372032-11.169258782Z"/>
        <path d="m562.865079686,177.264982034h-4.537175658v-19.29463492c0-4.068059627-.601614452-7.040321502-1.801262317-8.920366664-1.203228904-1.876464124-3.094017181-2.818277224-5.672364832-2.818277224-1.779776087,0-3.538065943.429724608-5.271288531,1.292754864-1.736803626.859449217-3.262325986,2.030448775-4.572986042,3.509417636-1.314241094,1.475387822-2.259635233,3.165637949-2.836182416,5.063588303v21.167518006h-4.537175658v-34.635803443h4.136099357v7.892608642c.934651023-1.679507011,2.159366158-3.151313795,3.670564364-4.411839314,1.511198206-1.260525518,3.226515602-2.245311079,5.13879011-2.954356683,1.912274508-.705464566,3.892588745-1.059987368,5.940942712-1.059987368,1.912274508,0,3.534484905.354522802,4.870212229,1.059987368,1.335727325.709045604,2.402876769,1.715317395,3.205029371,3.018815374.798571564,1.307079017,1.378699786,2.879154877,1.733222588,4.71264654.35810384,1.837072701.533574722,3.88184563.533574722,6.137899824v20.240029059Z"/>
        <path d="m572.544626492,135.220010133v-6.671474547h4.537175658v6.671474547h-4.537175658Zm0,42.044971901v-34.768301864h4.537175658v34.768301864h-4.537175658Z"/>
        <path d="m602.174138246,177.931055177c-2.538956228,0-4.863050153-.476278108-6.975862811-1.425253285-2.112812658-.952556215-3.960628475-2.26679731-5.539866411-3.94988536-1.579237936-1.679507011-2.80395307-3.606105673-3.670564364-5.772633907-.866611294-2.166528234-1.299916941-4.469135928-1.299916941-6.900661004,0-3.27665014.734112873-6.263236169,2.202338618-8.959758087,1.468225746-2.700102957,3.512998674-4.845144961,6.137899824-6.43870705,2.62490115-1.59356209,5.650878601-2.388552615,9.077932354-2.388552615,3.248001832,0,6.116413594.744855988,8.608816323,2.234567964,2.492402729,1.489711976,4.336637507,3.502255559,5.539866411,6.041211787l-4.404677237,1.400186016c-.981204523-1.779776087-2.349161193-3.169218988-4.103870011-4.171909741-1.758289856-.999109715-3.706374748-1.500455091-5.840673637-1.500455091-2.313350809,0-4.426163467.594452375-6.338437975,1.790519202-1.915855546,1.192485789-3.437796868,2.825439301-4.572986042,4.902441575-1.135189174,2.077002274-1.700993242,4.436906583-1.700993242,7.09045604,0,2.606995958.576547183,4.966900266,1.733222587,7.086875001,1.156675404,2.123555774,2.69294088,3.810224862,4.605215387,5.07075038,1.912274508,1.260525518,4.025087166,1.887207239,6.342019013,1.887207239,1.511198206,0,2.968680837-.264996842,4.368866853-.798571564,1.403767054-.537155761,2.62490115-1.25694448,3.670564364-2.170109273,1.045663214-.913164793,1.747546741-1.901531393,2.102069543-2.968680837l4.472716967,1.332146286c-.623100682,1.647277666-1.658020781,3.126246527-3.104760296,4.440487621-1.446739515,1.310660056-3.136989642,2.334837039-5.07075038,3.068949912s-4.014344051,1.09937879-6.2381689,1.09937879Z"/>
        <path d="m620.924455329,167.320438386c0-2.166528234.623100682-4.032249243,1.869302047-5.604325102,1.242620326-1.568494821,2.968680837-2.78246684,5.171019455-3.645497095,2.202338618-.863030255,4.748456924-1.292754864,7.641935954-1.292754864,1.690250127,0,3.448539983.132498421,5.271288531.397495263,1.826329586.26857788,3.448539983.669654182,4.873793268,1.203228904v-2.929289414c0-2.914965261-.870192332-5.239059185-2.60341492-6.965119696-1.736803626-1.722479472-4.139680395-2.585509728-7.208630307-2.585509728-1.869302047,0-3.70279371.343779687-5.504056027,1.034920099-1.804843356.691140412-3.684888518,1.700993242-5.640135486,3.036720567l-1.736803626-3.205029372c2.270378348-1.557751706,4.494203197-2.725170225,6.675055585-3.502255559,2.180852388-.777085334,4.404677237-1.16741852,6.675055585-1.16741852,4.268597778,0,7.649098031,1.213972019,10.14150076,3.645497095,2.492402729,2.431525076,3.738604094,5.794120138,3.738604094,10.080623107v15.982174397c0,.619519644.132498421,1.074311521.401076301,1.360794594.264996842.286483072.687559374.451210839,1.267687595.497764338v3.602524634c-.490602261.042972461-.913164793.08952596-1.267687595.132498421-.35810384.046553499-.623100682.046553499-.802152603,0-1.113702944-.042972461-1.958828007-.401076301-2.53537519-1.067149444-.580128221-.666073143-.891678563-1.378699786-.934651023-2.134298889l-.06803973-2.53537519c-1.557751706,2.001800468-3.581038404,3.54522802-6.069860095,4.637444733-2.492402729,1.088635675-5.031358958,1.632953512-7.609706608,1.632953512-2.223824849,0-4.236368432-.472697069-6.041211787-1.425253285-1.801262317-.948975177-3.201448333-2.230986926-4.204139086-3.846035246-.999109715-1.611467282-1.500455091-3.391243369-1.500455091-5.33932826Zm23.291073779,2.642806342c.490602261-.615938605.866611294-1.210390981,1.135189174-1.783357125.264996842-.572966145.401076301-1.081473598.401076301-1.521941322v-5.027777919c-1.514779245-.569385106-3.083274066-1.013433868-4.705484463-1.321403171-1.625791435-.307969303-3.258744948-.461953954-4.906022613-.461953954-3.248001832,0-5.872902982.637424836-7.87470345,1.915855546-2.001800468,1.27843071-3.004491221,3.022396413-3.004491221,5.224735031,0,1.282011749.33661761,2.481659614,1.002690753,3.606105673.666073143,1.124446059,1.643696627,2.048353967,2.936451491,2.778885801,1.289173825.726950796,2.80395307,1.088635675,4.537175658,1.088635675,2.180852388,0,4.214882201-.415400455,6.105670479-1.25694448,1.890788277-.834381948,3.348270908-1.915855546,4.372447891-3.240839756Z"/>
        <path d="m657.164563977,174.196032121l23.291073779-28.164867047h-22.757499057v-3.401986484h27.896289167v3.068949912l-23.158575358,28.164867047h23.090535629v3.401986484h-28.361824159v-3.068949912Z"/>
        <path d="m692.935556594,135.220010133v-6.671474547h4.537175658v6.671474547h-4.537175658Zm0,42.044971901v-34.768301864h4.537175658v34.768301864h-4.537175658Z"/>
        <path d="m722.364530198,177.931055177c-2.538956228,0-4.863050153-.476278108-6.975862811-1.425253285-2.112812658-.952556215-3.935561206-2.256054195-5.471826681-3.914074975-1.536265475-1.661601819-2.725170225-3.563133212-3.570295289-5.708175216-.845125063-2.148623042-1.267687595-4.415420352-1.267687595-6.803972968,0-2.478078576.422562532-4.787848346,1.267687595-6.936471388.845125063-2.145042004,2.044772929-4.046573397,3.602524634-5.704594178,1.557751706-1.661601819,3.394824407-2.965099798,5.507637065-3.917656014,2.112812658-.948975177,4.415420352-1.425253285,6.907823081-1.425253285,2.488821691,0,4.780686269.476278108,6.872012697,1.425253285,2.091326428.952556215,3.914074976,2.256054194,5.471826681,3.917656014,1.557751706,1.658020781,2.757399571,3.559552174,3.606105673,5.704594178.845125063,2.148623042,1.267687595,4.458392813,1.267687595,6.936471388,0,2.388552615-.422562532,4.655349925-1.267687595,6.803972968-.848706102,2.145042004-2.037610852,4.046573396-3.570295289,5.708175216-1.536265475,1.658020781-3.362595061,2.96151876-5.47540772,3.914074975-2.112812658.948975177-4.415420352,1.425253285-6.904242043,1.425253285Zm-12.680456988-17.783436714c0,2.560442459.565804068,4.89169846,1.700993242,6.990186965,1.135189174,2.098488505,2.657130496,3.752928247,4.572986042,4.966900266,1.912274508,1.217553057,4.025087166,1.822748548,6.338437975,1.822748548s4.426163467-.615938605,6.338437975-1.854977893c1.912274508-1.235458249,3.448539983-2.925708376,4.605215387-5.067169342,1.156675405-2.141460966,1.736803626-4.494203197,1.736803626-7.058226694,0-2.517469998-.580128221-4.834401845-1.736803626-6.957957619-1.156675404-2.119974735-2.69294088-3.799481747-4.605215387-5.034939996-1.912274508-1.235458249-4.025087166-1.854977893-6.338437975-1.854977893s-4.426163467.641005874-6.338437975,1.923017623c-1.915855546,1.27843071-3.437796868,2.968680837-4.572986042,5.067169342-1.135189174,2.098488505-1.700993242,4.451230736-1.700993242,7.058226694Z"/>
        <path d="m776.420304905,177.264982034h-4.537175658v-19.29463492c0-4.068059627-.601614452-7.040321502-1.801262317-8.920366664-1.203228904-1.876464124-3.094017181-2.818277224-5.672364832-2.818277224-1.779776087,0-3.538065943.429724608-5.271288531,1.292754864-1.736803626.859449217-3.262325986,2.030448775-4.572986042,3.509417636-1.314241094,1.475387822-2.259635233,3.165637949-2.836182416,5.063588303v21.167518006h-4.537175658v-34.635803443h4.136099357v7.892608642c.934651023-1.679507011,2.159366158-3.151313795,3.670564364-4.411839314,1.511198206-1.260525518,3.226515602-2.245311079,5.13879011-2.954356683,1.912274508-.705464566,3.892588745-1.059987368,5.940942712-1.059987368,1.912274508,0,3.534484905.354522802,4.870212229,1.059987368,1.335727325.709045604,2.402876769,1.715317395,3.205029372,3.018815374.798571564,1.307079017,1.378699786,2.879154877,1.733222588,4.71264654.35810384,1.837072701.533574722,3.88184563.533574722,6.137899824v20.240029059Z"/>
        <path d="m786.096270673,135.220010133v-6.671474547h4.537175658v6.671474547h-4.537175658Zm0,42.044971901v-34.768301864h4.537175658v34.768301864h-4.537175658Z"/>
      </g>
      <g>
        <path d="m161.235912944,161.234685518c22.262439925,22.261826212,58.355516547,22.261826212,80.617956472,0-22.262439925-22.263053638-58.355516547-22.263053638-80.617956472,0Z"/>
        <path d="m201.545198036,120.926014138c22.261826212,22.261826212,58.355516547,22.261826212,80.617342759,0-22.261826212-22.263053638-58.355516547-22.263053638-80.617342759,0Z"/>
        <path d="m201.545198036,40.308671379c-22.262439925,22.260598786-22.262439925,58.354289121,0,80.617342759,22.261826212-22.263053638,22.261826212-58.356743973,0-80.617342759Z"/>
        <path d="m241.854483128,80.617342759c22.261826212,22.261826212,58.355516547,22.261826212,80.617342759,0-22.261826212-22.261826212-58.355516547-22.261826212-80.617342759,0Z"/>
        <path d="m241.853869415,0c-22.261826212,22.260598786-22.261826212,58.354289121,0,80.617342759,22.262439925-22.263053638,22.262439925-58.356743973,0-80.617342759Z"/>
        <path d="m80.617956472,161.234685518c22.262439925,22.261826212,58.35613026,22.261826212,80.617956472,0-22.261826212-22.263053638-58.355516547-22.263053638-80.617956472,0Z"/>
        <path d="m161.235912944,80.616115333c-22.261826212,22.261826212-22.261826212,58.355516547,0,80.618570185,22.261826212-22.263053638,22.261826212-58.356743973,0-80.618570185Z"/>
        <path d="m120.926627851,120.926014138c-22.261826212-22.263053638-58.355516547-22.263053638-80.617342759,0,22.261826212,22.261826212,58.355516547,22.261826212,80.617342759,0Z"/>
        <path d="m120.926627851,40.308671379c-22.261826212,22.260598786-22.261826212,58.354289121,0,80.617342759,22.262439925-22.263053638,22.262439925-58.356743973,0-80.617342759Z"/>
        <path d="m0,80.617342759c22.261826212,22.261826212,58.355516547,22.261826212,80.617342759,0-22.261826212-22.261826212-58.355516547-22.261826212-80.617342759,0Z"/>
        <path d="m80.617956472,0c-22.261826212,22.260598786-22.261826212,58.354289121,0,80.617342759,22.261826212-22.263053638,22.261826212-58.356743973,0-80.617342759Z"/>
      </g>
    </g>
  </g>
</svg>