<?xml version="1.0" encoding="UTF-8"?>
<svg id="Layer_2" data-name="Layer 2" xmlns="http://www.w3.org/2000/svg" viewBox="0 0 322.471825887 177.931055177">
  <g id="Layer_1-2" data-name="Layer 1">
    <g>
      <path d="m161.235912944,161.234685518c22.262439925,22.261826212,58.355516547,22.261826212,80.617956472,0-22.262439925-22.263053638-58.355516547-22.263053638-80.617956472,0Z"/>
      <path d="m201.545198036,120.926014138c22.261826212,22.261826212,58.355516547,22.261826212,80.617342759,0-22.261826212-22.263053638-58.355516547-22.263053638-80.617342759,0Z"/>
      <path d="m201.545198036,40.308671379c-22.262439925,22.260598786-22.262439925,58.354289121,0,80.617342759,22.261826212-22.263053638,22.261826212-58.356743973,0-80.617342759Z"/>
      <path d="m241.854483128,80.617342759c22.261826212,22.261826212,58.355516547,22.261826212,80.617342759,0-22.261826212-22.261826212-58.355516547-22.261826212-80.617342759,0Z"/>
      <path d="m241.853869415,0c-22.261826212,22.260598786-22.261826212,58.354289121,0,80.617342759,22.262439925-22.263053638,22.262439925-58.356743973,0-80.617342759Z"/>
      <path d="m80.617956472,161.234685518c22.262439925,22.261826212,58.35613026,22.261826212,80.617956472,0-22.261826212-22.263053638-58.355516547-22.263053638-80.617956472,0Z"/>
      <path d="m161.235912944,80.616115333c-22.261826212,22.261826212-22.261826212,58.355516547,0,80.618570185,22.261826212-22.263053638,22.261826212-58.356743973,0-80.618570185Z"/>
      <path d="m120.926627851,120.926014138c-22.261826212-22.263053638-58.355516547-22.263053638-80.617342759,0,22.261826212,22.261826212,58.355516547,22.261826212,80.617342759,0Z"/>
      <path d="m120.926627851,40.308671379c-22.261826212,22.260598786-22.261826212,58.354289121,0,80.617342759,22.262439925-22.263053638,22.262439925-58.356743973,0-80.617342759Z"/>
      <path d="m0,80.617342759c22.261826212,22.261826212,58.355516547,22.261826212,80.617342759,0-22.261826212-22.261826212-58.355516547-22.261826212-80.617342759,0Z"/>
      <path d="m80.617956472,0c-22.261826212,22.260598786-22.261826212,58.354289121,0,80.617342759,22.261826212-22.263053638,22.261826212-58.356743973,0-80.617342759Z"/>
    </g>
  </g>
</svg>